HIERARCHY
ROOT Hips
{
 OFFSET 0.000000 0.000000 0.000000
 CHANNELS 6 Xposition Yposition Zposition Yrotation Xrotation Zrotation
 JOINT Chest
 {
  OFFSET 0.000000 9.585900 0.002600
  CHANNELS 3 Yrotation Xrotation Zrotation
  JOINT Chest2
  {
   OFFSET 0.000000 9.601200 -0.005300
   CHANNELS 3 Yrotation Xrotation Zrotation
   JOINT Chest3
   {
    OFFSET 0.000000 9.561800 0.000000
    CHANNELS 3 Yrotation Xrotation Zrotation
    JOINT Chest4
    {
     OFFSET 0.000000 9.552100 0.000000
     CHANNELS 3 Yrotation Xrotation Zrotation
     JOINT Neck
     {
      OFFSET 0.000000 14.453000 0.000000
      CHANNELS 3 Yrotation Xrotation Zrotation
      JOINT Head
      {
       OFFSET 0.000000 8.936500 -0.011300
       CHANNELS 3 Yrotation Xrotation Zrotation
       End Site
       {
        OFFSET 0.000000 17.073600 -0.006000
       }
      }
     }
     JOINT RightCollar
     {
      OFFSET -2.921100 9.558500 0.000000
      CHANNELS 3 Yrotation Xrotation Zrotation
      JOINT RightShoulder
      {
       OFFSET -13.519700 0.000000 0.000000
       CHANNELS 3 Yrotation Xrotation Zrotation
       JOINT RightElbow
       {
        OFFSET 0.000000 -29.696600 0.000000
        CHANNELS 3 Yrotation Xrotation Zrotation
        JOINT RightWrist
        {
         OFFSET 0.000000 -24.004700 0.000000
         CHANNELS 3 Yrotation Xrotation Zrotation
         End Site
         {
          OFFSET 0.000000 -17.728500 0.000000
         }
        }
       }
      }
     }
     JOINT LeftCollar
     {
      OFFSET 2.921100 9.558500 0.000000
      CHANNELS 3 Yrotation Xrotation Zrotation
      JOINT LeftShoulder
      {
       OFFSET 13.519700 0.000000 0.000000
       CHANNELS 3 Yrotation Xrotation Zrotation
       JOINT LeftElbow
       {
        OFFSET 0.000000 -29.696600 0.000000
        CHANNELS 3 Yrotation Xrotation Zrotation
        JOINT LeftWrist
        {
         OFFSET 0.000000 -24.004700 0.000000
         CHANNELS 3 Yrotation Xrotation Zrotation
         End Site
         {
          OFFSET 0.000000 -17.728500 0.000000
         }
        }
       }
      }
     }
    }
   }
  }
 }
 JOINT RightHip
 {
  OFFSET -7.771700 -0.012900 -0.001300
  CHANNELS 3 Yrotation Xrotation Zrotation
  JOINT RightKnee
  {
   OFFSET 0.000000 -40.869800 0.001200
   CHANNELS 3 Yrotation Xrotation Zrotation
   JOINT RightAnkle
   {
    OFFSET 0.000000 -39.717900 0.002100
    CHANNELS 3 Yrotation Xrotation Zrotation
    JOINT RightToe
    {
     OFFSET 0.000000 -4.965400 11.033500
     CHANNELS 3 Yrotation Xrotation Zrotation
     End Site
     {
      OFFSET 0.000000 -1.423100 5.872300
     }
    }
   }
  }
 }
 JOINT LeftHip
 {
  OFFSET 7.771700 -0.012900 -0.001300
  CHANNELS 3 Yrotation Xrotation Zrotation
  JOINT LeftKnee
  {
   OFFSET 0.000000 -40.869800 0.001200
   CHANNELS 3 Yrotation Xrotation Zrotation
   JOINT LeftAnkle
   {
    OFFSET 0.000000 -39.717900 0.002100
    CHANNELS 3 Yrotation Xrotation Zrotation
    JOINT LeftToe
    {
     OFFSET 0.000000 -4.965400 11.033500
     CHANNELS 3 Yrotation Xrotation Zrotation
     End Site
     {
      OFFSET 0.000000 -1.423100 5.872300
     }
    }
   }
  }
 }
}
MOTION
Frames: 12
Frame Time: 0.008333
-231.422002 57.601443 -78.588309 159.032121 -8.266523 0.355134 2.661046 6.798535 0.505180 0.104947 0.296253 -0.011021 0.173065 0.508999 -0.008803 2.289644 6.485925 -0.103763 -1.057007 18.215859 -2.173101 -1.235941 -1.968165 -3.649813 2.286711 9.476467 1.628842 -5.899547 -9.208021 -8.819709 -117.619756 -84.129187 139.125252 -3.560532 2.584192 -33.603869 -4.715025 9.542981 -2.237708 19.706841 -4.864570 0.023948 143.276875 -80.719832 -166.663847 -2.070998 7.261182 14.056272 -15.961814 -63.687749 9.218208 -36.373399 71.466456 -37.610260 -3.913272 -7.077934 -1.398729 -0.245612 0.687101 -0.122534 3.054227 -66.310697 15.414074 42.063772 66.057698 34.850794 -17.919548 -10.755994 4.152386 -0.167016 -0.830978 -0.093204
-231.423316 57.601753 -78.583880 159.022482 -8.281580 0.361085 2.643394 6.789595 0.519833 0.118089 0.306925 -0.020447 0.165103 0.505592 -0.004185 2.300890 6.496256 -0.108530 -1.179050 18.186384 -2.284219 -1.411383 -2.011848 -3.838216 2.288531 9.484721 1.630444 -5.909242 -9.200015 -8.791642 -117.460226 -84.143628 138.962129 -3.551284 2.580712 -33.613522 -4.706772 9.554430 -2.218345 19.740888 -4.855703 0.038048 143.318634 -80.716485 -166.696812 -2.110160 7.283536 14.092216 -15.965904 -63.672802 9.216516 -36.343217 71.463161 -37.581287 -3.905732 -7.073702 -1.398996 -0.244729 0.688781 -0.127775 3.066794 -66.295519 15.401654 42.073255 66.052972 34.859881 -17.901298 -10.758882 4.167701 -0.175933 -0.831392 -0.107972
-231.423112 57.602230 -78.578994 158.997540 -8.293279 0.359735 2.664119 6.797646 0.528128 0.104799 0.296081 -0.010117 0.163165 0.506713 -0.004592 2.311629 6.502076 -0.109689 -1.297435 18.161285 -2.391481 -1.577934 -2.050153 -4.015414 2.271862 9.489321 1.665546 -5.895529 -9.188440 -8.801269 -117.548956 -84.164376 139.058814 -3.541226 2.576881 -33.615071 -4.698546 9.568332 -2.198417 19.756545 -4.850123 0.027913 143.498591 -80.729791 -166.853522 -2.123155 7.293255 14.102554 -15.954401 -63.659431 9.221078 -36.361201 71.449322 -37.569578 -3.918338 -7.069798 -1.431740 -0.204753 0.688870 -0.119001 3.063819 -66.276868 15.410115 42.087486 66.037883 34.878464 -17.867159 -10.775727 4.170583 -0.204160 -0.829210 -0.113561
-231.424325 57.603132 -78.577172 158.979142 -8.315376 0.372913 2.659065 6.808413 0.527498 0.087043 0.281869 0.003609 0.183849 0.519615 -0.016596 2.294501 6.490123 -0.088448 -1.390707 18.156147 -2.520511 -1.734605 -2.083310 -4.179969 2.291862 9.516158 1.641806 -5.900128 -9.176622 -8.780328 -117.623014 -84.181710 139.143325 -3.557387 2.584948 -33.635854 -4.656281 9.609888 -2.181682 19.761094 -4.848407 -0.006485 143.655523 -80.742223 -166.990626 -2.121363 7.297353 14.101602 -15.944422 -63.638751 9.210251 -36.329950 71.450560 -37.545388 -3.902323 -7.072571 -1.434126 -0.208888 0.693726 -0.123890 3.098796 -66.250703 15.383327 42.089596 66.031200 34.886098 -17.866797 -10.775694 4.168445 -0.198476 -0.832278 -0.114600
-231.427853 57.604025 -78.576176 158.965525 -8.333565 0.402097 2.650847 6.812940 0.512357 0.088978 0.283458 0.002890 0.183978 0.519680 -0.016362 2.301580 6.497246 -0.093053 -1.491067 18.134619 -2.611110 -1.881497 -2.112235 -4.331167 2.295288 9.523444 1.637056 -5.929005 -9.147109 -8.720856 -117.807659 -84.210497 139.343508 -3.559006 2.585439 -33.637849 -4.649808 9.619540 -2.177331 19.812020 -4.833377 0.050321 143.523550 -80.712211 -166.875462 -2.119682 7.300887 14.100335 -15.958830 -63.624259 9.199381 -36.257457 71.460017 -37.499047 -3.871616 -7.079174 -1.436189 -0.230729 0.701216 -0.129339 3.158749 -66.228443 15.324561 42.091344 66.029343 34.884894 -17.867708 -10.760493 4.172400 -0.184212 -0.849124 -0.114818
-231.427151 57.604639 -78.572566 158.947232 -8.342954 0.405545 2.651512 6.810501 0.522693 0.092136 0.280983 0.001250 0.184172 0.519714 -0.016111 2.307349 6.505829 -0.095540 -1.582076 18.113920 -2.694075 -2.016432 -2.136253 -4.466943 2.289147 9.531090 1.644996 -5.924340 -9.141802 -8.725170 -117.483334 -84.206675 139.012857 -3.541468 2.588288 -33.623484 -4.646030 9.627473 -2.174701 19.836244 -4.827658 0.069108 143.534919 -80.712102 -166.880273 -2.116250 7.306330 14.099789 -15.956275 -63.614543 9.205065 -36.244782 71.455672 -37.474058 -3.885510 -7.075793 -1.452914 -0.224584 0.700621 -0.119296 3.162217 -66.217115 15.333626 42.101842 66.022850 34.892631 -17.861686 -10.748372 4.171791 -0.227786 -0.865087 -0.116837
-231.423432 57.605146 -78.568485 158.925652 -8.353440 0.394909 2.661477 6.805639 0.547256 0.098389 0.288094 -0.005581 0.184272 0.519717 -0.015980 2.304516 6.499234 -0.086126 -1.663610 18.102502 -2.777067 -2.135725 -2.155845 -4.585769 2.287859 9.545249 1.640563 -5.926291 -9.134044 -8.723186 -117.454583 -84.211521 138.987099 -3.558425 2.627734 -33.636136 -4.640634 9.654295 -2.148393 19.857744 -4.820329 0.049092 143.485558 -80.702102 -166.834342 -2.121473 7.318329 14.110679 -15.978644 -63.599327 9.239158 -36.253788 71.446589 -37.455858 -3.898570 -7.068514 -1.491478 -0.184934 0.694297 -0.104572 3.147156 -66.206473 15.371570 42.111175 66.015753 34.903526 -17.852737 -10.740379 4.167169 -0.224059 -0.870870 -0.114474
-231.421990 57.605577 -78.566265 158.913179 -8.367160 0.403037 2.648765 6.786174 0.550065 0.115490 0.313620 -0.013023 0.184320 0.519637 -0.015808 2.292810 6.479434 -0.076793 -1.727486 18.106751 -2.855768 -2.238270 -2.172429 -4.686295 2.304105 9.572650 1.632720 -5.943050 -9.122452 -8.709669 -117.412671 -84.218281 138.953837 -3.546975 2.639163 -33.630648 -4.623259 9.684628 -2.148528 19.868553 -4.811745 0.047052 143.477801 -80.696476 -166.825388 -2.118632 7.320132 14.110320 -15.985701 -63.586081 9.242366 -36.220980 71.450683 -37.432662 -3.869638 -7.067037 -1.488550 -0.214467 0.694349 -0.111266 3.158907 -66.189341 15.363869 42.136827 66.000958 34.929684 -17.856284 -10.728416 4.157801 -0.223010 -0.879929 -0.112617
-231.420205 57.605984 -78.565661 158.895535 -8.388588 0.416672 2.655529 6.791069 0.540100 0.105176 0.296663 -0.009522 0.193641 0.537445 -0.016230 2.299996 6.492674 -0.080075 -1.792310 18.088067 -2.913100 -2.325948 -2.185454 -4.769086 2.301825 9.573315 1.633644 -5.971003 -9.104686 -8.695195 -117.282327 -84.239219 138.851055 -3.536545 2.623307 -33.622425 -4.619302 9.689372 -2.139818 19.871543 -4.807630 0.042068 143.558307 -80.710426 -166.891618 -2.107664 7.311236 14.105766 -15.966774 -63.568772 9.223033 -36.213417 71.451602 -37.416115 -3.871705 -7.063194 -1.505150 -0.204980 0.689853 -0.110466 3.193986 -66.163118 15.342754 42.141993 65.993890 34.934764 -17.862069 -10.719741 4.153405 -0.203052 -0.883445 -0.106542
-231.416878 57.606005 -78.563804 158.887140 -8.404446 0.420453 2.656576 6.790241 0.535479 0.105277 0.296733 -0.009621 0.189559 0.536600 -0.013442 2.299746 6.493578 -0.083720 -1.811696 18.094257 -2.937737 -2.426692 -2.203206 -4.850121 2.301126 9.590507 1.635777 -5.964838 -9.103091 -8.694516 -117.237129 -84.255003 138.813525 -3.539142 2.625894 -33.617588 -4.608001 9.706662 -2.136429 19.892160 -4.801108 0.052225 143.591357 -80.716921 -166.916543 -2.096159 7.301953 14.098819 -15.976083 -63.555652 9.224118 -36.215895 71.455040 -37.401035 -3.879803 -7.058699 -1.529116 -0.187017 0.681111 -0.108658 3.201074 -66.144855 15.341926 42.148344 65.988415 34.940866 -17.862150 -10.716079 4.151534 -0.231256 -0.883028 -0.110070
-231.414445 57.605850 -78.562997 158.879728 -8.422528 0.433601 2.659486 6.800464 0.522068 0.103692 0.292233 -0.011043 0.189477 0.533998 -0.012449 2.295306 6.478076 -0.096475 -1.826481 18.115889 -2.948178 -2.509841 -2.215922 -4.911855 2.290915 9.611985 1.638304 -5.960064 -9.088252 -8.686608 -117.254184 -84.266275 138.848776 -3.539475 2.630476 -33.612650 -4.600010 9.738747 -2.124276 19.906170 -4.795964 0.062313 143.550789 -80.707495 -166.879676 -2.098104 7.306958 14.106084 -15.969987 -63.539801 9.205016 -36.188772 71.461812 -37.375656 -3.853097 -7.062046 -1.530814 -0.195801 0.683358 -0.113769 3.236514 -66.122357 15.315490 42.137791 65.986303 34.930470 -17.875302 -10.714265 4.145748 -0.209283 -0.875104 -0.102384
-231.407244 57.605457 -78.560898 158.874709 -8.442043 0.418763 2.662804 6.810229 0.535654 0.105410 0.296787 -0.009803 0.181173 0.504456 -0.022732 2.302632 6.497965 -0.095281 -1.897153 18.099834 -3.007425 -2.528238 -2.204992 -4.923272 2.289071 9.617195 1.639883 -5.962435 -9.075777 -8.681771 -117.295226 -84.276954 138.906213 -3.535983 2.634561 -33.609571 -4.592563 9.753859 -2.113374 19.909129 -4.791270 0.063188 143.560451 -80.702528 -166.887437 -2.088638 7.291086 14.139381 -16.019780 -63.516359 9.243907 -36.184087 71.470862 -37.345168 -3.863903 -7.058931 -1.559804 -0.173687 0.672276 -0.112494 3.190309 -66.104542 15.372305 42.152135 65.986368 34.941822 -17.871699 -10.710085 4.133570 -0.208002 -0.878714 -0.093899
